<svg xmlns="http://www.w3.org/2000/svg" width="192.498" height="64.164" viewBox="0 0 192.498 64.164">
  <g id="Group_1" data-name="Group 1" transform="translate(-204.443 -138.999)">
    <rect id="Rectangle_2" data-name="Rectangle 2" width="192.498" height="64.164" transform="translate(204.443 138.999)" fill="#e50019"/>
    <path id="Path_1" data-name="Path 1" d="M340.637,192.722h-8.616l-2.547,7.112h8.62Zm42.808,28.45,6.921-19.012H371.719c-5.794.137-7.771,6.567-7.771,6.567l-4.662,12.445h-9.891l4.662-12.993h5.653l2.118-6.43H356.6l3.388-9.027h-8.9l-3.814,9.3h-5.51l-2.26,6.289H345.3l-4.945,12.993h-9.888l6.923-19.282h-8.619l-7.627,19.352-7.632.068-1.836-7.11,12.431-12.174H313.793l-9.887,9.437,6.639-18.876h-8.62l-10.878,28.585h-7.064l6.784-19.146H271.693c-4.953,0-7.063,5.335-7.063,5.335l-5.513,13.677h-7.062l6.923-19.012H243.861l1.7-4.786H230.58l1.555-4.652H204.443v7.932h15.824l-10.445,27.6h9.04l8.892-23.227h5.934l-8.328,23.227h9.04l7.056-18.848h6.5l-7.337,18.848H252.8c.3-.209,2.589-1.833,6.112-4.418,0,0,.836,3.366,3.545,4.418h6.389c.14-.172,1.036-1,5.394-4.556a5.751,5.751,0,0,0,3.189,4.556h7.713a46.316,46.316,0,0,1,5.062-4.521l-1.756,4.521h9.111l5.079-13.242,4.088,13.242h9.357l4.638-4.488c.721,3.725,3.379,4.378,4.157,4.488h10.28l4.775-4.353c.392,2.906,3.543,4.176,4.029,4.353h10.269l4.637-4.488c.565,3.83,4.519,4.488,4.519,4.488H369.6l4.38-4.488c.7,3.83,4.943,4.488,4.943,4.488H396.94v-7.086Zm-108.926.272h-6.074l4.8-12.034h6.075Zm99.461,0H367.9l4.8-12.034h6.079Z" transform="translate(0 -25.095)" fill="#fff"/>
  </g>
</svg>
