<svg xmlns="http://www.w3.org/2000/svg" width="25.554" height="25.554" viewBox="0 0 25.554 25.554">
  <path id="fax" d="M3.194,6.388H1.6A1.6,1.6,0,0,0,0,7.986V23.957a1.6,1.6,0,0,0,1.6,1.6h1.6a1.6,1.6,0,0,0,1.6-1.6V7.986A1.6,1.6,0,0,0,3.194,6.388Zm20.762,1.6V3.856a1.6,1.6,0,0,0-.468-1.129L21.23.468A1.6,1.6,0,0,0,20.1,0H7.986a1.6,1.6,0,0,0-1.6,1.6V23.957a1.6,1.6,0,0,0,1.6,1.6H23.957a1.6,1.6,0,0,0,1.6-1.6V9.583A1.6,1.6,0,0,0,23.957,7.986ZM14.374,21.561a.8.8,0,0,1-.8.8h-1.6a.8.8,0,0,1-.8-.8v-1.6a.8.8,0,0,1,.8-.8h1.6a.8.8,0,0,1,.8.8Zm0-6.388a.8.8,0,0,1-.8.8h-1.6a.8.8,0,0,1-.8-.8v-1.6a.8.8,0,0,1,.8-.8h1.6a.8.8,0,0,1,.8.8Zm6.388,6.388a.8.8,0,0,1-.8.8h-1.6a.8.8,0,0,1-.8-.8v-1.6a.8.8,0,0,1,.8-.8h1.6a.8.8,0,0,1,.8.8Zm0-6.388a.8.8,0,0,1-.8.8h-1.6a.8.8,0,0,1-.8-.8v-1.6a.8.8,0,0,1,.8-.8h1.6a.8.8,0,0,1,.8.8Zm.8-5.59H8.784V2.4H19.165v1.6a.8.8,0,0,0,.8.8h1.6Z" fill="#fff"/>
</svg>
