<svg xmlns="http://www.w3.org/2000/svg" width="19.584" height="19.584" viewBox="0 0 19.584 19.584">
  <path id="info" d="M-60.02-191.536a9.792,9.792,0,0,1,9.792,9.792,9.792,9.792,0,0,1-9.792,9.792,9.792,9.792,0,0,1-9.792-9.792,9.792,9.792,0,0,1,9.792-9.792Zm-1.479,8.391-.848,0a.158.158,0,0,1-.123-.057.157.157,0,0,1-.037-.13l.052-.337a.16.16,0,0,1,.143-.136l3.888-.41a.157.157,0,0,1,.137.052.157.157,0,0,1,.039.141l-1.446,7.27a.321.321,0,0,0,.4.378,2.582,2.582,0,0,0,1.23-1.061.157.157,0,0,1,.12-.065.158.158,0,0,1,.127.051l.246.26a.161.161,0,0,1,.011.21c-1.605,2.1-5.159,3.331-4.584.314l1.125-5.9a.47.47,0,0,0-.1-.4.471.471,0,0,0-.373-.177Zm2.242-5.48a1.584,1.584,0,0,1,1.584,1.584,1.584,1.584,0,0,1-1.584,1.584,1.584,1.584,0,0,1-1.584-1.584,1.584,1.584,0,0,1,1.584-1.584Z" transform="translate(69.812 191.536)" fill="#fff" fill-rule="evenodd"/>
</svg>
