<svg id="instagram-red" xmlns="http://www.w3.org/2000/svg" width="37.126" height="37.145" viewBox="0 0 37.126 37.145">
  <ellipse id="Ellipse_4" data-name="Ellipse 4" cx="18.563" cy="18.573" rx="18.563" ry="18.573" fill="#e50019"/>
  <path id="ic-instagram" d="M8.95,16.247H7.312c-.769,0-1.663,0-2.543-.054a4.79,4.79,0,0,1-3.406-1.311A4.8,4.8,0,0,1,.053,11.477C0,10.5,0,9.5,0,8.543V7.7c0-.959,0-1.952.052-2.933A4.806,4.806,0,0,1,1.364,1.364,4.8,4.8,0,0,1,4.769.054C5.647,0,6.542,0,7.311,0H8.934C9.7,0,10.6,0,11.475.054a4.8,4.8,0,0,1,3.407,1.31,4.8,4.8,0,0,1,1.311,3.407c.055.979.053,1.971.052,2.93,0,.141,0,.281,0,.422s0,.284,0,.426V8.6c0,.941,0,1.913-.053,2.873a4.8,4.8,0,0,1-1.311,3.406,4.792,4.792,0,0,1-3.407,1.311C10.6,16.243,9.713,16.247,8.95,16.247Zm-.832-12.3a4.172,4.172,0,1,0,4.174,4.173A4.177,4.177,0,0,0,8.118,3.947Zm4.341-1.135a.974.974,0,0,0,0,1.948.986.986,0,0,0,.373-.074.973.973,0,0,0,.528-.528.986.986,0,0,0,.074-.373A.975.975,0,0,0,12.459,2.811ZM8.118,10.826a2.707,2.707,0,1,1,2.707-2.706A2.709,2.709,0,0,1,8.118,10.826Z" transform="translate(10.445 10.453)" fill="#fff"/>
</svg>
