<svg xmlns="http://www.w3.org/2000/svg" width="59.262" height="59.292" viewBox="0 0 59.262 59.292">
  <g id="instagram" transform="translate(1 1)">
    <ellipse id="Ellipse_4" data-name="Ellipse 4" cx="28.631" cy="28.646" rx="28.631" ry="28.646" fill="none" stroke="#fff" stroke-width="2"/>
    <path id="ic-instagram" d="M13.8,25.059H11.278c-1.186,0-2.565-.006-3.922-.083A7.388,7.388,0,0,1,2.1,22.954,7.406,7.406,0,0,1,.081,17.7C0,16.19,0,14.658,0,13.176V11.882c0-1.48,0-3.01.081-4.523A7.413,7.413,0,0,1,2.1,2.1,7.4,7.4,0,0,1,7.356.083C8.71.006,10.09,0,11.277,0h2.5c1.185,0,2.564.006,3.92.083A7.4,7.4,0,0,1,22.954,2.1a7.409,7.409,0,0,1,2.022,5.256c.084,1.51.082,3.04.081,4.52,0,.217,0,.433,0,.65s0,.438,0,.657v.085c0,1.451,0,2.951-.081,4.431a7.4,7.4,0,0,1-2.022,5.253A7.391,7.391,0,0,1,17.7,24.976C16.349,25.053,14.981,25.059,13.8,25.059ZM12.521,6.087a6.435,6.435,0,1,0,6.437,6.436A6.443,6.443,0,0,0,12.521,6.087Zm6.7-1.751a1.5,1.5,0,0,0,0,3,1.52,1.52,0,0,0,.575-.114,1.5,1.5,0,0,0,.814-.814,1.521,1.521,0,0,0,.114-.575A1.5,1.5,0,0,0,19.216,4.336ZM12.521,16.7A4.174,4.174,0,1,1,16.7,12.523,4.178,4.178,0,0,1,12.521,16.7Z" transform="translate(16.109 16.122)" fill="#fff"/>
  </g>
</svg>
