<svg xmlns="http://www.w3.org/2000/svg" width="38.674" height="45.562" viewBox="0 0 38.674 45.562">
  <g id="know-more-icon" transform="translate(0 0)">
    <g id="Group_18" data-name="Group 18" transform="translate(6.458)">
      <path id="Path_34" data-name="Path 34" d="M266.171,40.291a.976.976,0,0,1-.839-.474,7.819,7.819,0,1,1,13.4,0,.977.977,0,1,1-1.675-1.008,5.864,5.864,0,1,0-10.053,0,.977.977,0,0,1-.836,1.482Z" transform="translate(-264.215 -27.977)" fill="#fff"/>
    </g>
    <g id="Group_19" data-name="Group 19" transform="translate(0 4.398)">
      <path id="Path_35" data-name="Path 35" d="M280.45,58.167a10.718,10.718,0,0,1,2.417.278V54.662A1.949,1.949,0,0,0,281.95,53,40.373,40.373,0,0,0,268.7,47.727V40.4a3.421,3.421,0,0,0-6.841,0V57.5c-2.433-3.441-5.935-5.2-8.8-4.4a5.278,5.278,0,0,0-1.663.807.972.972,0,0,0-.178,1.4c2.494,3.082,4.421,5.7,5.751,7.568,4.2,5.9,5.422,8.507,8.8,10.262a12.486,12.486,0,0,0,5.578,1.482,10.743,10.743,0,0,1,9.108-16.453Z" transform="translate(-251 -36.977)" fill="#fff"/>
      <path id="Path_36" data-name="Path 36" d="M304.033,83.795a9.219,9.219,0,1,0,6.806,8.893A9.22,9.22,0,0,0,304.033,83.795Zm-2.466,3.311a1.309,1.309,0,1,1-1.308,1.309A1.308,1.308,0,0,1,301.567,87.105Zm1.872,11.073a.092.092,0,0,1-.091.092h-3.562a.092.092,0,0,1-.091-.092v-.137a.32.32,0,0,1,.32-.319.685.685,0,0,0,.684-.685V91.753a.514.514,0,0,0-.513-.514.319.319,0,1,1,0-.639h1.838a.411.411,0,0,1,.411.411v6.026a.684.684,0,0,0,.684.685.32.32,0,0,1,.32.319Z" transform="translate(-272.165 -60.748)" fill="#fff"/>
    </g>
  </g>
</svg>
