<svg xmlns="http://www.w3.org/2000/svg" width="37.126" height="37.145" viewBox="0 0 37.126 37.145">
  <g id="linkedin-red" transform="translate(0 0)">
    <ellipse id="Ellipse_4" data-name="Ellipse 4" cx="18.563" cy="18.573" rx="18.563" ry="18.573" transform="translate(0 0)" fill="#e50019"/>
    <g id="Group_56" data-name="Group 56" transform="translate(10.184 9.052)">
      <rect id="Rectangle_19" data-name="Rectangle 19" width="3.521" height="11.92" transform="translate(0.363 6.07)" fill="#fff"/>
      <path id="Path_152" data-name="Path 152" d="M868.926,825.631v8.036H865.4v-6.413a2.237,2.237,0,0,0-2.232-2.232h0a2.241,2.241,0,0,0-2.236,2.232v6.413h-3.522v-11.92h3.522v1.761a4.28,4.28,0,0,1,7.989,2.124Z" transform="translate(-851.186 -815.676)" fill="#fff" fill-rule="evenodd"/>
      <path id="Path_153" data-name="Path 153" d="M523.26,518.608a2.121,2.121,0,1,0-2.124-2.119,2.123,2.123,0,0,0,2.124,2.119Z" transform="translate(-521.136 -514.365)" fill="#fff" fill-rule="evenodd"/>
    </g>
  </g>
</svg>
