<svg xmlns="http://www.w3.org/2000/svg" width="18.964" height="20.354" viewBox="0 0 18.964 20.354">
  <g id="quick-view" transform="translate(0 0)">
    <path id="Path_2" data-name="Path 2" d="M1870.162,1635.531v5.476h-5.642Z" transform="translate(-1864.52 -1635.531)" fill="#fff"/>
    <path id="Path_3" data-name="Path 3" d="M2463.987,2247.683l-2.448-2.448a4.524,4.524,0,1,0-3.722,1.965,4.476,4.476,0,0,0,2.242-.6l2.506,2.506a1.005,1.005,0,1,0,1.422-1.421Zm-9.35-5.049a3.181,3.181,0,1,1,3.181,3.214A3.2,3.2,0,0,1,2454.637,2242.634Z" transform="translate(-2445.316 -2229.913)" fill="#fff"/>
    <path id="Path_4" data-name="Path 4" d="M1879.5,1654.207a6.331,6.331,0,0,1-2.48.505,6.459,6.459,0,0,1,0-12.918,6.34,6.34,0,0,1,3.857,1.3v-7.566h-9.067v7.482h-7.292v12.872h16.359v-.456Z" transform="translate(-1864.52 -1635.532)" fill="#fff"/>
  </g>
</svg>
