<svg id="twitter-red" xmlns="http://www.w3.org/2000/svg" width="37.126" height="37.145" viewBox="0 0 37.126 37.145">
  <ellipse id="Ellipse_4" data-name="Ellipse 4" cx="18.563" cy="18.573" rx="18.563" ry="18.573" fill="#e50019"/>
  <path id="ic-twitter" d="M206.161,5457.833a6.689,6.689,0,0,1-1.917.515,3.318,3.318,0,0,0,1.464-1.835,6.569,6.569,0,0,1-2.113.8,3.332,3.332,0,0,0-5.762,2.278,3.826,3.826,0,0,0,.082.764,9.459,9.459,0,0,1-6.865-3.486,3.339,3.339,0,0,0,1.031,4.456,3.341,3.341,0,0,1-1.505-.424v.041a3.33,3.33,0,0,0,2.669,3.27,3.564,3.564,0,0,1-.877.113,4.5,4.5,0,0,1-.629-.05,3.339,3.339,0,0,0,3.112,2.31,6.674,6.674,0,0,1-4.133,1.423,6.8,6.8,0,0,1-.8-.042,9.48,9.48,0,0,0,14.587-7.981c0-.145,0-.289-.01-.434A7.163,7.163,0,0,0,206.161,5457.833Z" transform="translate(-179.474 -5444.65)" fill="#fff"/>
</svg>
