<svg xmlns="http://www.w3.org/2000/svg" width="37.126" height="37.145" viewBox="0 0 37.126 37.145">
  <g id="youtube-red" transform="translate(0 0)">
    <ellipse id="Ellipse_4" data-name="Ellipse 4" cx="18.563" cy="18.573" rx="18.563" ry="18.573" transform="translate(0 0)" fill="#e50019"/>
    <path id="Icon_awesome-youtube" data-name="Icon awesome-youtube" d="M19.48,6.571A2.365,2.365,0,0,0,17.816,4.9a55.894,55.894,0,0,0-7.354-.4,55.9,55.9,0,0,0-7.354.4A2.365,2.365,0,0,0,1.443,6.571a24.812,24.812,0,0,0-.393,4.56,24.812,24.812,0,0,0,.393,4.56,2.33,2.33,0,0,0,1.664,1.648,55.9,55.9,0,0,0,7.354.4,55.9,55.9,0,0,0,7.354-.4,2.33,2.33,0,0,0,1.664-1.648,24.812,24.812,0,0,0,.393-4.56A24.812,24.812,0,0,0,19.48,6.571ZM8.537,13.93v-5.6l4.92,2.8-4.92,2.8Z" transform="translate(8.101 7.455)" fill="#fff"/>
  </g>
</svg>
