<svg xmlns="http://www.w3.org/2000/svg" width="59.262" height="59.292" viewBox="0 0 59.262 59.292">
  <g id="youtube" transform="translate(1 1)">
    <ellipse id="Ellipse_4" data-name="Ellipse 4" cx="28.631" cy="28.646" rx="28.631" ry="28.646" transform="translate(0 0)" fill="none" stroke="#fff" stroke-width="2"/>
    <path id="Icon_awesome-youtube" data-name="Icon awesome-youtube" d="M29.476,7.694a3.648,3.648,0,0,0-2.567-2.583C24.645,4.5,15.566,4.5,15.566,4.5s-9.079,0-11.343.611A3.648,3.648,0,0,0,1.657,7.694a38.269,38.269,0,0,0-.607,7.033,38.269,38.269,0,0,0,.607,7.033A3.594,3.594,0,0,0,4.223,24.3c2.264.611,11.343.611,11.343.611s9.079,0,11.343-.611a3.594,3.594,0,0,0,2.567-2.542,38.269,38.269,0,0,0,.607-7.033,38.269,38.269,0,0,0-.607-7.033ZM12.6,19.044V10.411l7.588,4.317L12.6,19.044Z" transform="translate(13.065 13.938)" fill="#fff"/>
  </g>
</svg>
